<svg id="SvgjsSvg1000" xmlns="http://www.w3.org/2000/svg" version="1.1" xmlns:xlink="http://www.w3.org/1999/xlink" xmlns:svgjs="http://svgjs.com/svgjs" width="27" height="32"><defs id="SvgjsDefs1001"></defs><path id="SvgjsPath1007" d="M81.9998 238.743L81.9998 254L76.9999 254L76.9999 247C76.9999 245.895 76.1044 245 74.9998 245L68.9999 245C67.8954 245 66.9999 245.895 66.9999 247L66.9999 254L61.9999 254L61.9999 238.743L71.9999 228.743ZM72.8837 225.384C72.39540000000001 224.89499999999998 71.6044 224.89499999999998 71.1161 225.384L59.585800000000006 236.914C59.210800000000006 237.289 58.999900000000004 237.79799999999997 58.999900000000004 238.32799999999997L58.999900000000004 254.99999999999997C58.999900000000004 256.104 59.895500000000006 257 60.999900000000004 257L67.9999 257C69.1044 257 69.9999 256.104 69.9999 255L69.9999 248L73.9999 248L73.9999 255C73.9999 256.104 74.8954 257 75.9999 257L82.9999 257C84.1043 257 84.9999 256.104 84.9999 255L84.9999 238.328C84.9999 237.798 84.7889 237.28900000000002 84.414 236.91400000000002Z " fill="#d8d8d8" transform="matrix(1,0,0,1,-58,-225)"></path></svg>