<svg id="SvgjsSvg1008" xmlns="http://www.w3.org/2000/svg" version="1.1" xmlns:xlink="http://www.w3.org/1999/xlink" xmlns:svgjs="http://svgjs.com/svgjs" width="37" height="32"><defs id="SvgjsDefs1009"></defs><path id="SvgjsPath1010" d="M87.0001 350L81.905 350C81.8684 349.898 81.8303 349.797 81.7735 349.706L76.7735 341.706C76.508 341.28200000000004 76.0372 341 75.50019999999999 341C74.67209999999999 341 74.00019999999999 341.671 74.00019999999999 342.5C74.00019999999999 342.791 74.08309999999999 343.063 74.2268 343.294L78.4182 350L65.5821 350L69.7735 343.294C69.9172 343.063 70.0001 342.791 70.0001 342.5C70.0001 341.671 69.3283 341 68.5001 341C67.96300000000001 341 67.4923 341.282 67.22670000000001 341.706L62.22670000000001 349.706C62.169900000000005 349.797 62.132000000000005 349.898 62.095400000000005 350L57.0001 350C55.3434 350 54.00020000000001 351.343 54.00020000000001 353L54.00020000000001 355C54.00020000000001 356.421 54.9909 357.604 56.31700000000001 357.915L60.121300000000005 370.848C60.48740000000001 372.09200000000004 61.6379 373 63.00020000000001 373L81.0002 373C82.36240000000001 373 83.51280000000001 372.092 83.87910000000001 370.848L87.68320000000001 357.915C89.00940000000001 357.60400000000004 90.0002 356.421 90.0002 355L90.0002 353C90.0002 351.343 88.6568 350 87.0001 350ZM57.0001 353L87.0001 353L87.0001 355L57.0001 355ZM81.0002 370L62.9992 370.002L59.4703 358L84.5304 358Z " fill="#d8d8d8" transform="matrix(1,0,0,1,-54,-341)"></path></svg>