<svg id="SvgjsSvg1011" xmlns="http://www.w3.org/2000/svg" version="1.1" xmlns:xlink="http://www.w3.org/1999/xlink" xmlns:svgjs="http://svgjs.com/svgjs" width="33" height="32"><defs id="SvgjsDefs1012"></defs><path id="SvgjsPath1013" d="M75.9999 457C69.3728 457 63.99979999999999 462.373 63.99979999999999 469C63.99979999999999 471.772 64.949 474.318 66.52929999999999 476.349L56.43939999999999 486.43899999999996C56.14639999999999 486.73199999999997 55.99989999999999 487.11499999999995 55.99989999999999 487.49999999999994C55.99989999999999 487.88399999999996 56.14639999999999 488.26699999999994 56.43939999999999 488.55999999999995C56.73219999999999 488.85299999999995 57.11609999999999 488.99999999999994 57.49989999999999 488.99999999999994C57.88369999999999 488.99999999999994 58.26749999999999 488.85299999999995 58.56029999999999 488.55999999999995L68.65019999999998 478.47099999999995C70.68149999999999 480.05099999999993 73.22739999999999 480.99999999999994 75.99989999999998 480.99999999999994C82.62689999999998 480.99999999999994 87.99989999999998 475.62699999999995 87.99989999999998 468.99999999999994C87.99989999999998 462.37299999999993 82.62689999999998 456.99999999999994 75.99989999999998 456.99999999999994ZM75.9999 478C71.03699999999999 478 66.9999 473.963 66.9999 469C66.9999 464.037 71.03699999999999 460 75.9999 460C80.9627 460 84.9998 464.037 84.9998 469C84.9998 473.963 80.9627 478 75.9999 478Z " fill="#d8d8d8" transform="matrix(1,0,0,1,-55,-457)"></path></svg>